<svg width="726" height="152" viewBox="0 0 726 152" fill="none" xmlns="http://www.w3.org/2000/svg">
<path d="M443.164 34.8086V33.8086H442.322L442.179 34.6384L443.164 34.8086ZM459.219 34.8086L460.168 34.494L459.941 33.8086H459.219V34.8086ZM479.141 94.9258L478.191 95.2403L479.134 98.0839L480.088 95.2445L479.141 94.9258ZM499.355 34.8086V33.8086H498.637L498.408 34.4899L499.355 34.8086ZM515.176 34.8086L516.162 34.6423L516.021 33.8086H515.176V34.8086ZM529.707 121V122H530.89L530.693 120.834L529.707 121ZM513.887 121L512.901 121.168L513.042 122H513.887V121ZM504.629 66.5664L505.615 66.3987L503.681 66.2471L504.629 66.5664ZM486.289 121V122H487.007L487.237 121.319L486.289 121ZM471.816 121L470.868 121.316L471.095 122H471.816V121ZM453.711 66.5664L454.66 66.2508L452.726 66.3956L453.711 66.5664ZM444.277 121V122H445.119L445.263 121.171L444.277 121ZM428.281 121L427.296 120.83L427.094 122H428.281V121ZM443.164 35.8086H459.219V33.8086H443.164V35.8086ZM458.27 35.1232L478.191 95.2403L480.09 94.6112L460.168 34.494L458.27 35.1232ZM480.088 95.2445L500.303 35.1273L498.408 34.4899L478.193 94.6071L480.088 95.2445ZM499.355 35.8086H515.176V33.8086H499.355V35.8086ZM514.19 34.9748L528.721 121.166L530.693 120.834L516.162 34.6423L514.19 34.9748ZM529.707 120H513.887V122H529.707V120ZM514.873 120.832L505.615 66.3987L503.643 66.7341L512.901 121.168L514.873 120.832ZM503.681 66.2471L485.341 120.681L487.237 121.319L505.577 66.8857L503.681 66.2471ZM486.289 120H471.816V122H486.289V120ZM472.765 120.684L454.66 66.2508L452.762 66.882L470.868 121.316L472.765 120.684ZM452.726 66.3956L443.292 120.829L445.263 121.171L454.696 66.7372L452.726 66.3956ZM444.277 120H428.281V122H444.277V120ZM429.267 121.17L444.149 34.9787L442.179 34.6384L427.296 120.83L429.267 121.17ZM605 93.7539V94.7539H605.981L606 93.7731L605 93.7539ZM553.613 93.7539V92.7539H552.436L552.626 93.9155L553.613 93.7539ZM559.531 104.594L558.887 105.359L558.898 105.367L559.531 104.594ZM587.305 102.309L587.73 101.403L587.103 101.109L586.607 101.592L587.305 102.309ZM600.781 108.637L601.599 109.213L602.286 108.238L601.206 107.732L600.781 108.637ZM588.711 119.242L589.146 120.143L589.152 120.14L588.711 119.242ZM547.578 113.207L546.869 113.912L546.871 113.914L547.578 113.207ZM547.52 65.2773L546.804 64.579L546.804 64.579L547.52 65.2773ZM595.625 65.2773L594.909 65.9757L594.911 65.9779L595.625 65.2773ZM605.059 90.707L606.058 90.7263L606.059 90.7166V90.707H605.059ZM588.945 81.1562V82.1562H590.285L589.904 80.8718L588.945 81.1562ZM582.676 72.4844L582.091 73.2953L582.096 73.2988L582.676 72.4844ZM560.176 72.8945L560.771 73.6981L560.773 73.6968L560.176 72.8945ZM554.316 81.1562L553.406 80.7418L552.762 82.1562H554.316V81.1562ZM605 92.7539H553.613V94.7539H605V92.7539ZM552.626 93.9155C553.403 98.6579 555.483 102.495 558.887 105.359L560.175 103.829C557.173 101.302 555.308 97.9124 554.6 93.5923L552.626 93.9155ZM558.898 105.367C562.351 108.197 566.71 109.578 571.895 109.578V107.578C567.079 107.578 563.196 106.303 560.165 103.82L558.898 105.367ZM571.895 109.578C578.132 109.578 583.519 107.386 588.002 103.025L586.607 101.592C582.497 105.59 577.61 107.578 571.895 107.578V109.578ZM586.88 103.214L600.356 109.542L601.206 107.732L587.73 101.403L586.88 103.214ZM599.964 108.061C596.69 112.706 592.79 116.122 588.27 118.345L589.152 120.14C594.007 117.753 598.154 114.099 601.599 109.213L599.964 108.061ZM588.276 118.342C583.752 120.528 578.341 121.641 572.012 121.641V123.641C578.573 123.641 584.295 122.487 589.146 120.143L588.276 118.342ZM572.012 121.641C562.241 121.641 554.363 118.577 548.285 112.5L546.871 113.914C553.372 120.415 561.783 123.641 572.012 123.641V121.641ZM548.287 112.502C542.197 106.374 539.145 98.7233 539.145 89.4766H537.145C537.145 99.2142 540.381 107.384 546.869 113.912L548.287 112.502ZM539.145 89.4766C539.145 79.9861 542.184 72.1781 548.235 65.9757L546.804 64.579C540.355 71.1891 537.145 79.5139 537.145 89.4766H539.145ZM548.235 65.9757C554.326 59.7337 561.934 56.6094 571.133 56.6094V54.6094C561.425 54.6094 553.291 57.9303 546.804 64.579L548.235 65.9757ZM571.133 56.6094C580.936 56.6094 588.831 59.7463 594.909 65.9757L596.341 64.579C589.841 57.9177 581.407 54.6094 571.133 54.6094V56.6094ZM594.911 65.9779C600.985 72.1648 604.059 80.373 604.059 90.707H606.059C606.059 79.9474 602.843 71.2024 596.339 64.5768L594.911 65.9779ZM604.059 90.6878L604 93.7347L606 93.7731L606.058 90.7263L604.059 90.6878ZM589.904 80.8718C588.783 77.0953 586.556 74.0211 583.256 71.67L582.096 73.2988C585.046 75.4007 586.998 78.1078 587.987 81.4407L589.904 80.8718ZM583.261 71.6734C579.991 69.3142 576.189 68.1445 571.895 68.1445V70.1445C575.803 70.1445 579.189 71.2014 582.091 73.2953L583.261 71.6734ZM571.895 68.1445C567.241 68.1445 563.122 69.4555 559.579 72.0923L560.773 73.6968C563.948 71.3336 567.642 70.1445 571.895 70.1445V68.1445ZM559.581 72.091C557.273 73.8 555.233 76.7314 553.406 80.7418L555.226 81.5707C556.994 77.6905 558.859 75.1141 560.771 73.6981L559.581 72.091ZM554.316 82.1562H588.945V80.1562H554.316V82.1562ZM619.941 33.7539V32.7539H618.941V33.7539H619.941ZM635.879 33.7539H636.879V32.7539H635.879V33.7539ZM635.879 57.25H634.879V58.25H635.879V57.25ZM645.371 57.25H646.371V56.25H645.371V57.25ZM645.371 71.0195V72.0195H646.371V71.0195H645.371ZM635.879 71.0195V70.0195H634.879V71.0195H635.879ZM635.879 121V122H636.879V121H635.879ZM619.941 121H618.941V122H619.941V121ZM619.941 71.0195H620.941V70.0195H619.941V71.0195ZM611.738 71.0195H610.738V72.0195H611.738V71.0195ZM611.738 57.25V56.25H610.738V57.25H611.738ZM619.941 57.25V58.25H620.941V57.25H619.941ZM619.941 34.7539H635.879V32.7539H619.941V34.7539ZM634.879 33.7539V57.25H636.879V33.7539H634.879ZM635.879 58.25H645.371V56.25H635.879V58.25ZM644.371 57.25V71.0195H646.371V57.25H644.371ZM645.371 70.0195H635.879V72.0195H645.371V70.0195ZM634.879 71.0195V121H636.879V71.0195H634.879ZM635.879 120H619.941V122H635.879V120ZM620.941 121V71.0195H618.941V121H620.941ZM619.941 70.0195H611.738V72.0195H619.941V70.0195ZM612.738 71.0195V57.25H610.738V71.0195H612.738ZM611.738 58.25H619.941V56.25H611.738V58.25ZM620.941 57.25V33.7539H618.941V57.25H620.941ZM701.094 57.25V56.25H700.094V57.25H701.094ZM717.031 57.25H718.031V56.25H717.031V57.25ZM717.031 121V122H718.031V121H717.031ZM701.094 121H700.094V122H701.094V121ZM701.094 114.262H702.094V111.932L700.405 113.537L701.094 114.262ZM691.66 120.707L692.041 121.631L692.047 121.629L691.66 120.707ZM660.078 113.09L659.349 113.774L659.351 113.777L660.078 113.09ZM659.785 65.043L659.051 64.3637L659.785 65.043ZM691.777 57.7773L692.173 56.8588L691.777 57.7773ZM701.094 64.2812L700.382 64.9835L702.094 66.7189V64.2812H701.094ZM671.914 75.6484L672.641 76.3348L672.645 76.3308L671.914 75.6484ZM671.973 102.66L671.242 103.343L671.246 103.347L671.973 102.66ZM696.875 102.777L697.598 103.468L697.602 103.464L696.875 102.777ZM701.094 58.25H717.031V56.25H701.094V58.25ZM716.031 57.25V121H718.031V57.25H716.031ZM717.031 120H701.094V122H717.031V120ZM702.094 121V114.262H700.094V121H702.094ZM700.405 113.537C697.346 116.443 694.301 118.514 691.273 119.785L692.047 121.629C695.347 120.244 698.591 118.018 701.782 114.987L700.405 113.537ZM691.279 119.783C688.285 121.018 685.017 121.641 681.465 121.641V123.641C685.256 123.641 688.785 122.975 692.041 121.631L691.279 119.783ZM681.465 121.641C673.516 121.641 666.645 118.584 660.805 112.403L659.351 113.777C665.542 120.33 672.929 123.641 681.465 123.641V121.641ZM660.807 112.405C654.98 106.2 652.055 98.5023 652.055 89.2422H650.055C650.055 98.9664 653.145 107.167 659.349 113.774L660.807 112.405ZM652.055 89.2422C652.055 79.6101 654.895 71.7989 660.519 65.7222L659.051 64.3637C653.034 70.8651 650.055 79.1868 650.055 89.2422H652.055ZM660.519 65.7222C666.157 59.6307 672.964 56.6094 680.996 56.6094V54.6094C672.388 54.6094 665.054 57.8771 659.051 64.3637L660.519 65.7222ZM680.996 56.6094C684.695 56.6094 688.153 57.3068 691.382 58.6959L692.173 56.8588C688.683 55.3572 684.954 54.6094 680.996 54.6094V56.6094ZM691.382 58.6959C694.611 60.0849 697.611 62.1746 700.382 64.9835L701.806 63.579C698.873 60.6066 695.663 58.3604 692.173 56.8588L691.382 58.6959ZM702.094 64.2812V57.25H700.094V64.2812H702.094ZM684.277 69.375C679.049 69.375 674.66 71.2407 671.183 74.9661L672.645 76.3308C675.731 73.0249 679.584 71.375 684.277 71.375V69.375ZM671.187 74.9621C667.705 78.6511 665.992 83.382 665.992 89.0664H667.992C667.992 83.8133 669.561 79.5989 672.641 76.3348L671.187 74.9621ZM665.992 89.0664C665.992 94.7915 667.725 99.578 671.242 103.343L672.703 101.978C669.579 98.6329 667.992 94.3569 667.992 89.0664H665.992ZM671.246 103.347C674.794 107.101 679.178 108.992 684.336 108.992V106.992C679.729 106.992 675.87 105.328 672.699 101.973L671.246 103.347ZM684.336 108.992C689.633 108.992 694.079 107.153 697.598 103.468L696.152 102.087C693.03 105.355 689.117 106.992 684.336 106.992V108.992ZM697.602 103.464C701.127 99.7313 702.855 94.8805 702.855 89.0078H700.855C700.855 94.4633 699.263 98.7921 696.148 102.091L697.602 103.464ZM702.855 89.0078C702.855 83.2465 701.124 78.4904 697.594 74.8365L696.156 76.226C699.267 79.4471 700.855 83.6754 700.855 89.0078H702.855ZM697.594 74.8365C694.073 71.1907 689.608 69.375 684.277 69.375V71.375C689.103 71.375 693.037 72.9968 696.156 76.226L697.594 74.8365Z" fill="white"/>
<path d="M89.4141 53.8711L77.8711 65.2969C70.5664 57.5625 62.0508 53.6953 52.3242 53.6953C43.8477 53.6953 36.7383 56.5078 30.9961 62.1328C25.293 67.7578 22.4414 74.5938 22.4414 82.6406C22.4414 90.9609 25.4102 98.0117 31.3477 103.793C37.2852 109.574 44.6094 112.465 53.3203 112.465C58.9844 112.465 63.75 111.273 67.6172 108.891C71.5234 106.508 74.668 102.777 77.0508 97.6992H52.0898V82.2891H95.4492L95.5664 85.9219C95.5664 93.4609 93.6133 100.609 89.707 107.367C85.8008 114.125 80.7422 119.281 74.5312 122.836C68.3203 126.391 61.0352 128.168 52.6758 128.168C43.7305 128.168 35.7422 126.234 28.7109 122.367C21.7188 118.461 16.1719 112.914 12.0703 105.727C8.00781 98.5391 5.97656 90.7852 5.97656 82.4648C5.97656 71.0586 9.74609 61.1367 17.2852 52.6992C26.2305 42.6602 37.8711 37.6406 52.207 37.6406C59.707 37.6406 66.7188 39.0273 73.2422 41.8008C78.75 44.1445 84.1406 48.168 89.4141 53.8711ZM105.117 62.25H118.828V70.2773C120.312 67.1133 122.285 64.7109 124.746 63.0703C127.207 61.4297 129.902 60.6094 132.832 60.6094C134.902 60.6094 137.07 61.1562 139.336 62.25L134.355 76.0195C132.48 75.082 130.938 74.6133 129.727 74.6133C127.266 74.6133 125.176 76.1367 123.457 79.1836C121.777 82.2305 120.938 88.207 120.938 97.1133L120.996 100.219V126H105.117V62.25ZM177.246 60.6094C183.262 60.6094 188.906 62.1133 194.18 65.1211C199.492 68.1289 203.633 72.2109 206.602 77.3672C209.57 82.5234 211.055 88.0898 211.055 94.0664C211.055 100.082 209.551 105.707 206.543 110.941C203.574 116.176 199.512 120.277 194.355 123.246C189.199 126.176 183.516 127.641 177.305 127.641C168.164 127.641 160.352 124.398 153.867 117.914C147.422 111.391 144.199 103.48 144.199 94.1836C144.199 84.2227 147.852 75.9219 155.156 69.2812C161.562 63.5 168.926 60.6094 177.246 60.6094ZM177.48 75.668C172.52 75.668 168.379 77.4062 165.059 80.8828C161.777 84.3203 160.137 88.7344 160.137 94.125C160.137 99.6719 161.758 104.164 165 107.602C168.281 111.039 172.422 112.758 177.422 112.758C182.422 112.758 186.582 111.02 189.902 107.543C193.223 104.066 194.883 99.5938 194.883 94.125C194.883 88.6562 193.242 84.2227 189.961 80.8242C186.719 77.3867 182.559 75.668 177.48 75.668ZM217.09 62.25H232.734L245.566 98.5195L259.395 62.25H268.945L282.48 98.1094L295.312 62.25H311.074L287.812 126H277.676L264.082 89.6719L250.078 126H240.059L217.09 62.25ZM322.09 38.7539H338.027V62.25H347.52V76.0195H338.027V126H322.09V76.0195H313.887V62.25H322.09V38.7539ZM356.191 37.6406H372.07V68.6953C375.195 66 378.34 63.9883 381.504 62.6602C384.668 61.293 387.871 60.6094 391.113 60.6094C397.441 60.6094 402.773 62.7969 407.109 67.1719C410.82 70.9609 412.676 76.5273 412.676 83.8711V126H396.914V98.0508C396.914 90.668 396.562 85.668 395.859 83.0508C395.156 80.4336 393.945 78.4805 392.227 77.1914C390.547 75.9023 388.457 75.2578 385.957 75.2578C382.715 75.2578 379.922 76.332 377.578 78.4805C375.273 80.6289 373.672 83.5586 372.773 87.2695C372.305 89.1836 372.07 93.5586 372.07 100.395V126H356.191V37.6406Z" fill="white"/>
</svg>
