<svg xmlns="http://www.w3.org/2000/svg"  viewBox="0 0 64 64" width="512px" height="512px"><rect width="20" height="10" x="2" y="50" fill="#f283a5"/><path fill="#8d6c9f" d="M22,61H2c-0.552,0-1-0.448-1-1V50c0-0.552,0.448-1,1-1h20c0.552,0,1,0.448,1,1v10 C23,60.552,22.552,61,22,61z M3,59h18v-8H3V59z"/><rect width="20" height="10" x="22" y="50" fill="#f283a5"/><rect width="20" height="10" x="42" y="50" fill="#f283a5"/><path fill="#8d6c9f" d="M62,61H42c-0.552,0-1-0.448-1-1V50c0-0.552,0.448-1,1-1h20c0.552,0,1,0.448,1,1v10 C63,60.552,62.552,61,62,61z M43,59h18v-8H43V59z"/><rect width="20" height="10" x="12" y="40" fill="#f283a5"/><rect width="58" height="4" x="3" y="55" fill="#ed7899"/><path fill="#8d6c9f" d="M32,51H12c-0.552,0-1-0.448-1-1V40c0-0.552,0.448-1,1-1h20c0.552,0,1,0.448,1,1v10 C33,50.552,32.552,51,32,51z M13,49h18v-8H13V49z"/><rect width="20" height="10" x="32" y="40" fill="#f283a5"/><rect width="20" height="10" x="22" y="30" fill="#f283a5"/><path fill="#8d6c9f" d="M42,41H22c-0.552,0-1-0.448-1-1V30c0-0.552,0.448-1,1-1h20c0.552,0,1,0.448,1,1v10 C43,40.552,42.552,41,42,41z M23,39h18v-8H23V39z"/><path fill="#8d6c9f" d="M42,61H22c-0.552,0-1-0.448-1-1V50c0-0.552,0.448-1,1-1h20c0.552,0,1,0.448,1,1v10 C43,60.552,42.552,61,42,61z M23,59h18v-8H23V59z"/><polygon fill="#b5c4e0" points="45.707,22.778 34.393,25.607 37.222,14.293 45,15"/><path fill="#8d6c9f" d="M45,16c-0.256,0-0.512-0.098-0.707-0.293c-0.391-0.391-0.391-1.023,0-1.414l2.829-2.829 c0.391-0.391,1.023-0.391,1.414,0s0.391,1.023,0,1.414l-2.829,2.829C45.512,15.902,45.256,16,45,16z"/><rect width="13.414" height="6" x="45.157" y="5.136" fill="#f9dd8f" transform="rotate(-45.001 51.864 8.137)"/><path fill="#8d6c9f" d="M49.243,16c-0.256,0-0.512-0.098-0.707-0.293l-4.243-4.243c-0.391-0.391-0.391-1.023,0-1.414 l9.485-9.485c0.391-0.391,1.023-0.391,1.414,0l4.243,4.243c0.391,0.391,0.391,1.023,0,1.414l-9.485,9.485 C49.754,15.902,49.499,16,49.243,16z M46.414,10.757l2.829,2.829l8.071-8.071l-2.829-2.829L46.414,10.757z"/><polygon fill="#acb7d0" points="44.293,15.707 35.101,24.899 45,22.071"/><path fill="#8d6c9f" d="M37,57.028c0.553,0,1-0.448,1-1v-2c0-0.552-0.447-1-1-1s-1,0.448-1,1v2 C36,56.58,36.447,57.028,37,57.028z M32,57.028c0.553,0,1-0.448,1-1v-2c0-0.552-0.447-1-1-1s-1,0.448-1,1v2 C31,56.58,31.447,57.028,32,57.028z M27,57.028c0.553,0,1-0.448,1-1v-2c0-0.552-0.447-1-1-1s-1,0.448-1,1v2 C26,56.58,26.447,57.028,27,57.028z M57,57.028c0.553,0,1-0.448,1-1v-2c0-0.552-0.447-1-1-1s-1,0.448-1,1v2 C56,56.58,56.447,57.028,57,57.028z M52,57.028c0.553,0,1-0.448,1-1v-2c0-0.552-0.447-1-1-1s-1,0.448-1,1v2 C51,56.58,51.447,57.028,52,57.028z M47,57.028c0.553,0,1-0.448,1-1v-2c0-0.552-0.447-1-1-1s-1,0.448-1,1v2 C46,56.58,46.447,57.028,47,57.028z M17,53.028c-0.553,0-1,0.448-1,1v2c0,0.552,0.447,1,1,1s1-0.448,1-1v-2 C18,53.476,17.553,53.028,17,53.028z M12,53.028c-0.553,0-1,0.448-1,1v2c0,0.552,0.447,1,1,1s1-0.448,1-1v-2 C13,53.476,12.553,53.028,12,53.028z M7,53.028c-0.553,0-1,0.448-1,1v2c0,0.552,0.447,1,1,1s1-0.448,1-1v-2 C8,53.476,7.553,53.028,7,53.028z"/><rect width="38" height="4" x="13" y="45" fill="#ed7899"/><rect width="18" height="4" x="23" y="35" fill="#ed7899"/><path fill="#8d6c9f" d="M41,46h-4c-0.552,0-1-0.448-1-1s0.448-1,1-1h4c0.552,0,1,0.448,1,1S41.552,46,41,46z"/><path fill="#8d6c9f" d="M47,46h-2c-0.552,0-1-0.448-1-1s0.448-1,1-1h2c0.552,0,1,0.448,1,1S47.552,46,47,46z"/><path fill="#8d6c9f" d="M52,51H32c-0.552,0-1-0.448-1-1V40c0-0.552,0.448-1,1-1h20c0.552,0,1,0.448,1,1v10 C53,50.552,52.552,51,52,51z M33,49h18v-8H33V49z"/><path fill="#8d6c9f" d="M34.394,26.606c-0.262,0-0.517-0.103-0.707-0.293c-0.249-0.249-0.348-0.609-0.263-0.95l2.828-11.313 c0.12-0.478,0.577-0.792,1.061-0.753l7.778,0.707c0.481,0.044,0.862,0.425,0.906,0.906l0.707,7.778 c0.044,0.491-0.275,0.941-0.753,1.061l-11.313,2.828C34.556,26.597,34.475,26.606,34.394,26.606z M37.984,15.366l-2.216,8.866 l8.866-2.216L44.08,15.92L37.984,15.366z"/></svg>