<svg xmlns="http://www.w3.org/2000/svg"  viewBox="0 0 80 80" width="480px" height="480px"><path fill="#ffeea3" d="M58,45.5c-1.93,0-3.5-1.57-3.5-3.5V27.588L40.684,15.5H28c-1.93,0-3.5-1.57-3.5-3.5 s1.57-3.5,3.5-3.5h14c0.848,0,1.666,0.308,2.306,0.866l16,14C61.064,24.031,61.5,24.991,61.5,26v12.5H72c1.93,0,3.5,1.57,3.5,3.5 s-1.57,3.5-3.5,3.5H58z"/><path fill="#ba9b48" d="M42,9c0.726,0,1.429,0.264,1.976,0.742l16,14C60.627,24.312,61,25.135,61,26v12v1h1h10 c1.654,0,3,1.346,3,3s-1.346,3-3,3H58c-1.654,0-3-1.346-3-3V27.815v-0.454l-0.341-0.299L41.155,15.247L40.872,15h-0.376H28 c-1.654,0-3-1.346-3-3s1.346-3,3-3H42 M42,8H28c-2.209,0-4,1.791-4,4s1.791,4,4,4h12.496L54,27.815V42c0,2.209,1.791,4,4,4h14 c2.209,0,4-1.791,4-4s-1.791-4-4-4H62V26c0-1.153-0.498-2.251-1.365-3.011l-16-14C43.904,8.352,42.969,8,42,8L42,8z"/><path fill="#e1ebf2" d="M4.5 32.5H33.5V33.5H4.5z"/><path fill="#a3b7cc" d="M34 32L4 32 4 34 34 34 34 32z"/><path fill="#e1ebf2" d="M4.5 24.5H43.5V25.5H4.5z"/><path fill="#a3b7cc" d="M44 24L4 24 4 26 44 26 44 24z"/><path fill="#e1ebf2" d="M4.5 40.5H37.5V41.5H4.5z"/><path fill="#a3b7cc" d="M38 40L4 40 4 42 38 42 38 40z"/><path fill="#ffeea3" d="M68,17.5c-4.136,0-7.5-3.364-7.5-7.5s3.364-7.5,7.5-7.5s7.5,3.364,7.5,7.5S72.136,17.5,68,17.5z"/><path fill="#ba9b48" d="M68,3c3.86,0,7,3.14,7,7s-3.14,7-7,7s-7-3.14-7-7S64.14,3,68,3 M68,2c-4.418,0-8,3.582-8,8 c0,4.416,3.582,8,8,8c4.418,0,8-3.584,8-8C76,5.582,72.418,2,68,2L68,2z"/><g><path fill="#ffb5d2" d="M38.079,42.579c-2.127,0-4.08-0.976-5.357-2.676c-0.596-0.793-0.801-1.985-0.592-3.447 c0.476-3.342,2.911-7.173,4.887-8.655l15.413-11.49l7.772,6.934C61.031,23.938,61.5,24.938,61.5,26v0.679L42.087,41.243 C40.922,42.117,39.536,42.579,38.079,42.579z"/><path fill="#ea4c89" d="M52.402,16.956l7.493,6.684C60.597,24.226,61,25.086,61,26v0.429L41.787,40.843 c-1.077,0.808-2.359,1.236-3.707,1.236c-1.969,0-3.776-0.903-4.958-2.476c-0.835-1.111-0.745-3.252,0.242-5.726 c0.922-2.313,2.511-4.594,3.951-5.674L52.402,16.956 M52.458,15.667L36.717,27.401c-3.178,2.383-6.777,9.631-4.395,12.803 c1.413,1.881,3.57,2.876,5.758,2.876c1.501,0,3.015-0.466,4.307-1.436L62,26.929V26c0-1.209-0.537-2.354-1.464-3.128L52.458,15.667 L52.458,15.667z"/></g><g><path fill="#ffeea3" d="M34.073,77.5c-1.033,0-2.013-0.445-2.688-1.22c-1.297-1.481-1.146-3.742,0.335-5.04l15.881-15.877 c0.628-0.549,1.463-0.863,2.328-0.863c1.031,0,2.01,0.445,2.687,1.222c0.629,0.719,0.939,1.638,0.877,2.589 c-0.063,0.952-0.494,1.822-1.212,2.45L36.399,76.639C35.772,77.186,34.938,77.5,34.073,77.5z"/><path fill="#ba9b48" d="M49.929,55L49.929,55c0.886,0,1.728,0.383,2.312,1.053c1.115,1.274,0.985,3.217-0.289,4.333 l-0.025,0.022l-0.023,0.023L36.071,76.26C35.514,76.738,34.806,77,34.073,77c-0.888,0-1.731-0.382-2.313-1.05 c-1.115-1.274-0.985-3.217,0.289-4.333l0.025-0.022l0.023-0.023l15.832-15.83C48.487,55.263,49.195,55,49.929,55 M49.929,54 c-0.952,0-1.909,0.333-2.681,1.01L31.39,70.864c-1.692,1.482-1.863,4.053-0.383,5.744C31.812,77.531,32.94,78,34.073,78 c0.952,0,1.907-0.331,2.68-1.007L52.61,61.138c1.692-1.482,1.863-4.053,0.383-5.744C52.188,54.471,51.061,54,49.929,54L49.929,54z"/></g><g><path fill="#ffeea3" d="M28,61.5c-1.93,0-3.5-1.57-3.5-3.5s1.57-3.5,3.5-3.5h14.264L32.077,40.361 c-0.066-0.081-0.112-0.126-0.159-0.17c-1.139-1.495-1.59-3.255-1.337-5.024c0.253-1.77,1.179-3.335,2.608-4.408l3.383-2.614 l16.284,27.844C53.284,56.609,53.5,57.293,53.5,58c0,1.93-1.57,3.5-3.5,3.5H28z"/><path fill="#ba9b48" d="M36.428,28.888l15.997,27.353l0.019,0.033l0.022,0.031C52.815,56.81,53,57.396,53,58 c0,1.654-1.346,3-3,3H28c-1.654,0-3-1.346-3-3s1.346-3,3-3h13.287h1.953l-1.141-1.585l-9.615-13.347l-0.023-0.033l-0.026-0.031 c-0.054-0.064-0.112-0.122-0.182-0.183c-0.992-1.32-1.409-2.949-1.176-4.586c0.234-1.638,1.091-3.086,2.426-4.087L36.428,28.888 M36.717,27.401l-3.827,2.958c-3.178,2.383-3.821,6.893-1.438,10.065c0.066,0.088,0.15,0.148,0.22,0.23L41.287,54H28 c-2.2,0-4,1.8-4,4c0,2.2,1.8,4,4,4h22c2.2,0,4-1.8,4-4c0-0.84-0.265-1.619-0.712-2.264L36.717,27.401L36.717,27.401z"/></g><g><path fill="#839cb2" d="M41.543,53.5l-9.466-13.139c-0.066-0.081-0.112-0.126-0.159-0.17 c-1.139-1.495-1.59-3.255-1.337-5.024c0.252-1.77,1.179-3.335,2.608-4.408l3.383-2.614L51.409,53.5H41.543z"/><path fill="#66798f" d="M36.428,28.888L50.537,53h-8.739l-9.315-12.931l-0.024-0.033l-0.026-0.031 c-0.054-0.064-0.112-0.121-0.182-0.182c-0.992-1.32-1.41-2.949-1.176-4.586c0.234-1.638,1.091-3.086,2.426-4.087L36.428,28.888 M36.717,27.401l-3.827,2.958c-3.178,2.383-3.821,6.893-1.438,10.065c0.066,0.088,0.15,0.148,0.22,0.23L41.287,54h10.994 L36.717,27.401L36.717,27.401z"/></g></svg>